<svg width="114" height="84" viewBox="0 0 114 84" fill="none" xmlns="http://www.w3.org/2000/svg">
<g clip-path="url(#clip0_2_172)">
<path d="M56.0985 5.64532C58.0241 7.18568 59.9725 8.72206 61.9099 10.2446H61.9109C61.9386 8.2862 61.9623 6.30801 61.9672 4.34469C61.9593 4.33833 61.0268 3.64699 59.9117 2.82017C58.2476 1.58636 56.1767 0.0508834 56.1637 0.0396136L56.1094 0V0.0673528C56.1121 0.0749345 56.1083 1.20166 56.1042 2.44037C56.0992 3.95553 56.0936 5.63824 56.0985 5.64532Z" fill="#705a8c"/>
<path fill-rule="evenodd" clip-rule="evenodd" d="M56.0376 30.4569L54.0886 30.4562C52.3296 53.7688 24.2977 64.9634 7.46073 47.8807C2.45119 42.7069 -0.310813 35.442 0.0278889 28.2583C0.028805 27.6734 0.0679333 27.04 0.104386 26.4513V26.4496L0.1128 26.3128C0.324136 23.7135 0.896885 21.1459 1.85178 18.7131C6.37053 6.8677 19.2444 -0.260523 31.669 2.11588C42.9127 4.05635 51.7854 13.3689 53.7566 24.4359C54.4919 24.4359 55.2426 24.436 56.0022 24.4363C55.9583 16.9707 55.9241 11.1724 55.9238 11.147L55.984 11.1946C55.9887 11.204 56.766 11.8251 57.7477 12.6096L57.7503 12.6117L57.7526 12.6135L57.7532 12.614L57.7556 12.6159L57.7561 12.6163L57.7566 12.6167L57.7568 12.6168L57.7607 12.62C59.4538 13.9729 61.7452 15.804 61.7371 15.8265C61.7371 15.8561 61.7605 19.3768 61.7943 24.4407C62.4791 24.4414 63.1576 24.4422 63.8251 24.4429L65.1556 24.4444C65.1679 24.3619 65.1805 24.2797 65.1933 24.1979C65.5804 21.9364 66.246 19.6918 67.2098 17.6115C67.7884 16.3198 68.5251 15.0242 69.3112 13.8473L69.4287 13.6661L69.5541 13.4907C69.9658 12.9073 70.4043 12.3238 70.8556 11.7721C71.22 11.3402 71.6061 10.8865 71.9971 10.4794C72.4484 9.99399 73.0488 9.41647 73.5337 8.96774C73.6821 8.832 73.8995 8.64799 74.1063 8.47299L74.1065 8.47288C74.2588 8.34398 74.4054 8.21997 74.5142 8.12378C74.6099 8.05112 74.8024 7.90059 74.9991 7.74685L74.9998 7.74623L75.0083 7.73963C75.1167 7.65484 75.226 7.56943 75.3205 7.49591C75.4095 7.4267 75.4854 7.36803 75.5353 7.33033C77.9665 5.54629 80.7009 4.17135 83.5903 3.31351C95.136 -0.0901341 107.049 4.69934 113.69 14.6309L113.73 14.6883H113.66C113.644 14.6883 109.538 14.721 109.523 14.721C108.08 13.0529 106.224 11.7929 104.259 10.8211C99.8246 8.68246 94.8269 7.64532 89.9102 7.84641C88.2798 7.93457 86.6268 8.22185 85.0685 8.70524C78.0425 10.8974 73.1308 16.9578 71.7759 24.1296C71.7559 24.2365 71.7367 24.3436 71.7182 24.4509C74.1988 24.452 75.7875 24.4498 75.795 24.4396H75.8849L75.8434 24.5189L72.7061 30.4633L71.479 30.4629C71.8323 34.3744 73.1783 38.1927 75.5146 41.3588C78.9244 46.067 84.4148 49.0308 90.2222 49.2012C95.1449 49.3716 100.911 47.7401 105.072 45.1091C106.791 44.0046 108.386 42.6188 109.442 40.8476L109.646 40.492L109.662 40.4643H109.692L113.911 40.4573H114C112.911 42.493 111.555 44.382 109.997 46.0819C105.402 51.111 98.9052 54.5365 92.0511 54.8019H92.052C91.8763 54.8019 91.6782 54.806 91.4736 54.8102H91.4729C91.0789 54.8182 90.6606 54.8268 90.3299 54.8079C89.0461 54.7702 87.7367 54.6533 86.4767 54.4225C84.0781 54.0045 81.7259 53.223 79.5376 52.1561C73.584 49.222 68.85 44.0353 66.5254 37.7966C65.6399 35.4552 65.094 32.9584 64.9176 30.4604L61.8345 30.4592L61.8927 39.1586C61.9663 50.1739 62.0383 60.9525 62.0383 61L61.9514 60.9416L56.1933 57.0139C56.1933 56.9712 56.1112 42.9752 56.0376 30.4569ZM75.7346 24.4931L75.7428 24.4775C75.7271 24.483 75.6878 24.4882 75.6263 24.4931H75.7346ZM46.955 24.4452C44.5397 24.4535 42.862 24.4683 42.4804 24.4931H42.47L42.4662 24.4822L42.4585 24.4931H42.4327L42.4339 24.4968C42.4082 24.4995 42.396 24.5022 42.3981 24.505L44.4146 30.4257L44.4234 30.4525L47.3005 30.4536C46.627 44.9261 31.6558 54.6207 17.9883 49.222C9.10192 45.8263 3.05256 36.2503 4.08843 26.7001C4.35409 24.5189 4.93077 22.3634 5.81358 20.3564C10.519 9.33821 23.6694 4.01878 34.593 8.93603C40.9583 11.6732 45.6408 17.6997 46.955 24.4452ZM42.4332 24.529C42.4325 24.5292 42.4323 24.5295 42.4327 24.5298L42.4332 24.529ZM55.9429 11.2551C55.9467 11.2584 55.953 11.2636 55.9616 11.2707L55.9633 11.5476C55.9566 11.3776 55.9498 11.278 55.9429 11.2551ZM61.9812 60.6063L61.9826 60.8283L62.005 60.8436C61.9968 60.8186 61.9889 60.7382 61.9812 60.6063Z" fill="#705a8c"/>
<path d="M2.49461 72.92C2.49461 71.84 2.67461 70.8467 3.03461 69.94C3.39461 69.0333 3.89461 68.2533 4.53461 67.6C5.17461 66.9333 5.94128 66.4133 6.83461 66.04C7.74128 65.6667 8.73461 65.48 9.81461 65.48C10.8946 65.48 11.8813 65.6667 12.7746 66.04C13.6813 66.4133 14.4546 66.9333 15.0946 67.6C15.7346 68.2533 16.2346 69.0333 16.5946 69.94C16.9546 70.8467 17.1346 71.84 17.1346 72.92C17.1346 74 16.9546 75 16.5946 75.92C16.2346 76.8267 15.7346 77.6133 15.0946 78.28C14.4546 78.9333 13.6813 79.4467 12.7746 79.82C11.8813 80.18 10.8946 80.36 9.81461 80.36C8.73461 80.36 7.74128 80.18 6.83461 79.82C5.94128 79.4467 5.17461 78.9333 4.53461 78.28C3.89461 77.6133 3.39461 76.8267 3.03461 75.92C2.67461 75 2.49461 74 2.49461 72.92ZM3.81461 72.92C3.81461 73.8 3.95461 74.62 4.23461 75.38C4.51461 76.14 4.91461 76.8 5.43461 77.36C5.95461 77.92 6.58128 78.36 7.31461 78.68C8.06128 79 8.89461 79.16 9.81461 79.16C10.7346 79.16 11.5613 79 12.2946 78.68C13.0413 78.36 13.6746 77.92 14.1946 77.36C14.7146 76.8 15.1146 76.14 15.3946 75.38C15.6746 74.62 15.8146 73.8 15.8146 72.92C15.8146 72.04 15.6746 71.22 15.3946 70.46C15.1146 69.7 14.7146 69.04 14.1946 68.48C13.6746 67.92 13.0413 67.48 12.2946 67.16C11.5613 66.84 10.7346 66.68 9.81461 66.68C8.89461 66.68 8.06128 66.84 7.31461 67.16C6.58128 67.48 5.95461 67.92 5.43461 68.48C4.91461 69.04 4.51461 69.7 4.23461 70.46C3.95461 71.22 3.81461 72.04 3.81461 72.92ZM19.2543 73.36C19.2543 73.1867 19.2476 72.98 19.2343 72.74C19.221 72.4867 19.2076 72.2333 19.1943 71.98C19.1943 71.7267 19.1876 71.4933 19.1743 71.28C19.161 71.0533 19.1543 70.88 19.1543 70.76H20.3543C20.3676 71.1067 20.3743 71.44 20.3743 71.76C20.3876 72.08 20.4076 72.2867 20.4343 72.38H20.4943C20.7343 71.8733 21.1343 71.44 21.6943 71.08C22.2543 70.7067 22.9076 70.52 23.6543 70.52C24.3743 70.52 24.961 70.6333 25.4143 70.86C25.8676 71.0867 26.221 71.3867 26.4743 71.76C26.741 72.12 26.921 72.54 27.0143 73.02C27.121 73.5 27.1743 73.9933 27.1743 74.5V80H25.9743V74.56C25.9743 74.1867 25.941 73.8267 25.8743 73.48C25.8076 73.12 25.6876 72.8 25.5143 72.52C25.3543 72.24 25.121 72.02 24.8143 71.86C24.521 71.6867 24.1343 71.6 23.6543 71.6C23.2143 71.6 22.7943 71.68 22.3943 71.84C22.0076 71.9867 21.6676 72.22 21.3743 72.54C21.0943 72.8467 20.8676 73.24 20.6943 73.72C20.5343 74.1867 20.4543 74.74 20.4543 75.38V80H19.2543V73.36ZM38.0276 78.26C37.5609 78.9667 36.9809 79.4733 36.2876 79.78C35.6076 80.0867 34.8542 80.24 34.0276 80.24C33.3209 80.24 32.6809 80.12 32.1076 79.88C31.5342 79.64 31.0409 79.3067 30.6276 78.88C30.2142 78.44 29.8942 77.9267 29.6676 77.34C29.4542 76.74 29.3476 76.08 29.3476 75.36C29.3476 74.6667 29.4609 74.0267 29.6876 73.44C29.9142 72.8533 30.2342 72.3467 30.6476 71.92C31.0609 71.48 31.5476 71.14 32.1076 70.9C32.6676 70.6467 33.2876 70.52 33.9676 70.52C34.6742 70.52 35.2942 70.6467 35.8276 70.9C36.3742 71.14 36.8276 71.4667 37.1876 71.88C37.5609 72.28 37.8409 72.74 38.0276 73.26C38.2142 73.78 38.3076 74.3067 38.3076 74.84V75.68H30.5476C30.5476 75.9333 30.5942 76.26 30.6876 76.66C30.7942 77.0467 30.9809 77.4267 31.2476 77.8C31.5142 78.1733 31.8676 78.4933 32.3076 78.76C32.7609 79.0267 33.3409 79.16 34.0476 79.16C34.6609 79.16 35.2542 79.0133 35.8276 78.72C36.4009 78.4267 36.8409 78.0267 37.1476 77.52L38.0276 78.26ZM37.1076 74.6C37.1076 74.1867 37.0209 73.8 36.8476 73.44C36.6876 73.08 36.4609 72.7667 36.1676 72.5C35.8876 72.22 35.5476 72 35.1476 71.84C34.7609 71.68 34.3476 71.6 33.9076 71.6C33.2542 71.6 32.7076 71.7333 32.2676 72C31.8409 72.2667 31.5009 72.5733 31.2476 72.92C30.9942 73.2667 30.8142 73.6067 30.7076 73.94C30.6009 74.26 30.5476 74.48 30.5476 74.6H37.1076ZM45.3762 70.76H46.5762V80H45.3762V70.76ZM45.0762 67.1C45.0762 66.8467 45.1628 66.6333 45.3362 66.46C45.5095 66.2867 45.7228 66.2 45.9762 66.2C46.2295 66.2 46.4428 66.2867 46.6162 66.46C46.7895 66.6333 46.8762 66.8467 46.8762 67.1C46.8762 67.3533 46.7895 67.5667 46.6162 67.74C46.4428 67.9133 46.2295 68 45.9762 68C45.7228 68 45.5095 67.9133 45.3362 67.74C45.1628 67.5667 45.0762 67.3533 45.0762 67.1ZM49.4809 73.36C49.4809 73.1867 49.4742 72.98 49.4609 72.74C49.4475 72.4867 49.4342 72.2333 49.4209 71.98C49.4209 71.7267 49.4142 71.4933 49.4009 71.28C49.3875 71.0533 49.3809 70.88 49.3809 70.76H50.5809C50.5942 71.1067 50.6009 71.44 50.6009 71.76C50.6142 72.08 50.6342 72.2867 50.6609 72.38H50.7209C50.9609 71.8733 51.3609 71.44 51.9209 71.08C52.4809 70.7067 53.1342 70.52 53.8809 70.52C54.6009 70.52 55.1875 70.6333 55.6409 70.86C56.0942 71.0867 56.4475 71.3867 56.7009 71.76C56.9675 72.12 57.1475 72.54 57.2409 73.02C57.3475 73.5 57.4009 73.9933 57.4009 74.5V80H56.2009V74.56C56.2009 74.1867 56.1675 73.8267 56.1009 73.48C56.0342 73.12 55.9142 72.8 55.7409 72.52C55.5809 72.24 55.3475 72.02 55.0409 71.86C54.7475 71.6867 54.3609 71.6 53.8809 71.6C53.4409 71.6 53.0209 71.68 52.6209 71.84C52.2342 71.9867 51.8942 72.22 51.6009 72.54C51.3209 72.8467 51.0942 73.24 50.9209 73.72C50.7609 74.1867 50.6809 74.74 50.6809 75.38V80H49.4809V73.36ZM76.7895 77.78C76.1095 78.7 75.3228 79.36 74.4295 79.76C73.5361 80.16 72.5695 80.36 71.5295 80.36C70.4495 80.36 69.4561 80.18 68.5495 79.82C67.6561 79.4467 66.8895 78.9333 66.2495 78.28C65.6095 77.6133 65.1095 76.8267 64.7495 75.92C64.3895 75 64.2095 74 64.2095 72.92C64.2095 71.84 64.3895 70.8467 64.7495 69.94C65.1095 69.0333 65.6095 68.2533 66.2495 67.6C66.8895 66.9333 67.6561 66.4133 68.5495 66.04C69.4561 65.6667 70.4495 65.48 71.5295 65.48C72.4895 65.48 73.3828 65.6533 74.2095 66C75.0495 66.3333 75.7828 66.9 76.4095 67.7L75.3295 68.6C74.8895 67.9333 74.3228 67.4467 73.6295 67.14C72.9495 66.8333 72.2495 66.68 71.5295 66.68C70.6095 66.68 69.7761 66.84 69.0295 67.16C68.2961 67.48 67.6695 67.92 67.1495 68.48C66.6295 69.04 66.2295 69.7 65.9495 70.46C65.6695 71.22 65.5295 72.04 65.5295 72.92C65.5295 73.8 65.6695 74.62 65.9495 75.38C66.2295 76.14 66.6295 76.8 67.1495 77.36C67.6695 77.92 68.2961 78.36 69.0295 78.68C69.7761 79 70.6095 79.16 71.5295 79.16C71.8895 79.16 72.2628 79.12 72.6495 79.04C73.0361 78.9467 73.4095 78.8133 73.7695 78.64C74.1428 78.4533 74.4961 78.2267 74.8295 77.96C75.1628 77.68 75.4561 77.3467 75.7095 76.96L76.7895 77.78ZM78.3715 64.88H79.5715V72.38H79.6115C79.8515 71.8733 80.2515 71.44 80.8115 71.08C81.3715 70.7067 82.0248 70.52 82.7715 70.52C83.4915 70.52 84.0782 70.6333 84.5315 70.86C84.9848 71.0867 85.3382 71.3867 85.5915 71.76C85.8582 72.12 86.0382 72.54 86.1315 73.02C86.2382 73.5 86.2915 73.9933 86.2915 74.5V80H85.0915V74.56C85.0915 74.1867 85.0582 73.8267 84.9915 73.48C84.9248 73.12 84.8048 72.8 84.6315 72.52C84.4715 72.24 84.2382 72.02 83.9315 71.86C83.6382 71.6867 83.2515 71.6 82.7715 71.6C82.3315 71.6 81.9115 71.68 81.5115 71.84C81.1248 71.9867 80.7848 72.22 80.4915 72.54C80.2115 72.8467 79.9848 73.24 79.8115 73.72C79.6515 74.1867 79.5715 74.74 79.5715 75.38V80H78.3715V64.88ZM88.9848 73.36C88.9848 73.1867 88.9781 72.98 88.9648 72.74C88.9514 72.4867 88.9381 72.2333 88.9248 71.98C88.9248 71.7267 88.9181 71.4933 88.9048 71.28C88.8914 71.0533 88.8848 70.88 88.8848 70.76H90.0848C90.0981 71.1067 90.1048 71.44 90.1048 71.76C90.1181 72.08 90.1381 72.2867 90.1648 72.38C90.4714 71.8333 90.8648 71.3867 91.3448 71.04C91.8248 70.6933 92.4114 70.52 93.1048 70.52C93.2248 70.52 93.3381 70.5333 93.4448 70.56C93.5648 70.5733 93.6848 70.5933 93.8048 70.62L93.6648 71.8C93.5048 71.7467 93.3514 71.72 93.2048 71.72C92.6848 71.72 92.2314 71.8067 91.8448 71.98C91.4714 72.14 91.1581 72.3667 90.9048 72.66C90.6648 72.9533 90.4848 73.3 90.3648 73.7C90.2448 74.0867 90.1848 74.5067 90.1848 74.96V80H88.9848V73.36ZM95.3449 70.76H96.5449V80H95.3449V70.76ZM95.0449 67.1C95.0449 66.8467 95.1316 66.6333 95.3049 66.46C95.4783 66.2867 95.6916 66.2 95.9449 66.2C96.1983 66.2 96.4116 66.2867 96.5849 66.46C96.7583 66.6333 96.8449 66.8467 96.8449 67.1C96.8449 67.3533 96.7583 67.5667 96.5849 67.74C96.4116 67.9133 96.1983 68 95.9449 68C95.6916 68 95.4783 67.9133 95.3049 67.74C95.1316 67.5667 95.0449 67.3533 95.0449 67.1ZM99.4696 77.64C99.7229 78.1333 100.096 78.5133 100.59 78.78C101.083 79.0333 101.603 79.16 102.15 79.16C102.403 79.16 102.656 79.12 102.91 79.04C103.163 78.96 103.39 78.8467 103.59 78.7C103.79 78.5533 103.95 78.38 104.07 78.18C104.203 77.9667 104.27 77.7267 104.27 77.46C104.27 77.0333 104.13 76.7133 103.85 76.5C103.583 76.2867 103.25 76.12 102.85 76C102.45 75.88 102.01 75.78 101.53 75.7C101.05 75.6067 100.61 75.4733 100.21 75.3C99.8096 75.1133 99.4696 74.86 99.1896 74.54C98.9229 74.22 98.7896 73.7667 98.7896 73.18C98.7896 72.7267 98.8829 72.3333 99.0696 72C99.2563 71.6667 99.4963 71.3933 99.7896 71.18C100.096 70.9533 100.436 70.7867 100.81 70.68C101.183 70.5733 101.563 70.52 101.95 70.52C102.71 70.52 103.363 70.66 103.91 70.94C104.47 71.22 104.903 71.66 105.21 72.26L104.13 72.9C103.903 72.4733 103.616 72.1533 103.27 71.94C102.936 71.7133 102.496 71.6 101.95 71.6C101.736 71.6 101.51 71.6333 101.27 71.7C101.043 71.7667 100.836 71.86 100.65 71.98C100.463 72.1 100.303 72.2533 100.17 72.44C100.05 72.6267 99.9896 72.84 99.9896 73.08C99.9896 73.4933 100.123 73.8 100.39 74C100.67 74.2 101.01 74.36 101.41 74.48C101.81 74.5867 102.25 74.68 102.73 74.76C103.21 74.84 103.65 74.9733 104.05 75.16C104.45 75.3333 104.783 75.5933 105.05 75.94C105.33 76.2733 105.47 76.7533 105.47 77.38C105.47 77.86 105.376 78.28 105.19 78.64C105.016 78.9867 104.77 79.28 104.45 79.52C104.143 79.76 103.79 79.94 103.39 80.06C102.99 80.18 102.57 80.24 102.13 80.24C101.33 80.24 100.596 80.0867 99.9296 79.78C99.2763 79.4733 98.7696 79 98.4096 78.36L99.4696 77.64ZM111.985 71.84H109.345V77.86C109.345 78.2733 109.459 78.5933 109.685 78.82C109.912 79.0467 110.225 79.16 110.625 79.16C110.852 79.16 111.079 79.1333 111.305 79.08C111.545 79.0133 111.772 78.9333 111.985 78.84L112.085 79.92C111.859 80 111.599 80.0733 111.305 80.14C111.012 80.2067 110.752 80.24 110.525 80.24C110.099 80.24 109.732 80.1733 109.425 80.04C109.119 79.92 108.872 79.7533 108.685 79.54C108.499 79.3267 108.359 79.08 108.265 78.8C108.185 78.5067 108.145 78.1933 108.145 77.86V71.84H106.145V70.76H108.145V68.1H109.345V70.76H111.985V71.84Z" fill="#705a8c"/>
</g>
<defs>
<clipPath id="clip0_2_172">
<rect width="114" height="84" fill="#705a8c"/>
</clipPath>
</defs>
</svg>
